# xmcd
#
# Track frame offsets:
#	150
#	14274
#	41068
#	62097
#	65248
#	76216
#	96659
#	121412
#	136438
#	148872
#	165616
#	182926
#	198818
#	223554
#
# Disc length: 3317 seconds
#
# Revision: 1
# Processed by: cddbd v1.4PL0 Copyright (c) Steve Scherf et al.
# Submitted via: audiograbber 1.82.02
#
DISCID=d60cf30e
DTITLE=Clint Black  - D'lectrified
DYEAR=1999
DGENRE=Country
TTITLE0=Bob Away My Blues 
TTITLE1=Are You Sure Waylon Done It This Way
TTITLE2=Hand In The Fire 
TTITLE3=Outside Intro (To Galaxy Song)
TTITLE4=The Galaxy Song 
TTITLE5=When I Said I Do (With Lisa Hartman Black)
TTITLE6=Been There (With Steve Wariner)
TTITLE7=Dixie Lullaby (With Bruce Hornsby)
TTITLE8=Where Your Love Won't Go 
TTITLE9=Love She Can't Live Without 
TTITLE10=Burn One Down 
TTITLE11=Who I Used To Be 
TTITLE12=Harmony (With Kenny Loggins)
TTITLE13=No Time To Kill 
EXTD=
EXTT0=
EXTT1=
EXTT2=
EXTT3=
EXTT4=
EXTT5=
EXTT6=
EXTT7=
EXTT8=
EXTT9=
EXTT10=
EXTT11=
EXTT12=
EXTT13=
PLAYORDER=
